<svg width="24" height="24" viewBox="0 0 24 24" fill="none" xmlns="http://www.w3.org/2000/svg">
<path fill-rule="evenodd" clip-rule="evenodd" d="M1.5 11.9989C1.5 11.8 1.57902 11.6092 1.71967 11.4685C1.86032 11.3279 2.05109 11.2489 2.25 11.2489H19.9395L15.219 6.52987C15.1493 6.46014 15.094 6.37736 15.0562 6.28625C15.0185 6.19514 14.9991 6.09749 14.9991 5.99887C14.9991 5.90026 15.0185 5.80261 15.0562 5.7115C15.094 5.62039 15.1493 5.5376 15.219 5.46787C15.2887 5.39814 15.3715 5.34283 15.4626 5.30509C15.5537 5.26735 15.6514 5.24792 15.75 5.24792C15.8486 5.24792 15.9463 5.26735 16.0374 5.30509C16.1285 5.34283 16.2113 5.39814 16.281 5.46787L22.281 11.4679C22.3508 11.5375 22.4063 11.6203 22.4441 11.7114C22.4819 11.8025 22.5013 11.9002 22.5013 11.9989C22.5013 12.0975 22.4819 12.1952 22.4441 12.2863C22.4063 12.3774 22.3508 12.4602 22.281 12.5299L16.281 18.5299C16.2113 18.5996 16.1285 18.6549 16.0374 18.6927C15.9463 18.7304 15.8486 18.7498 15.75 18.7498C15.6514 18.7498 15.5537 18.7304 15.4626 18.6927C15.3715 18.6549 15.2887 18.5996 15.219 18.5299C15.1493 18.4601 15.094 18.3774 15.0562 18.2862C15.0185 18.1951 14.9991 18.0975 14.9991 17.9989C14.9991 17.9003 15.0185 17.8026 15.0562 17.7115C15.094 17.6204 15.1493 17.5376 15.219 17.4679L19.9395 12.7489H2.25C2.05109 12.7489 1.86032 12.6699 1.71967 12.5292C1.57902 12.3886 1.5 12.1978 1.5 11.9989Z" fill="white"/>
</svg>
