<svg width="18" height="18" viewBox="0 0 18 18" fill="none" xmlns="http://www.w3.org/2000/svg">
<path d="M13.4389 10.7402C13.2447 10.9284 13.1554 11.2007 13.1997 11.4677L13.8664 15.1577C13.9227 15.4704 13.7907 15.787 13.5289 15.9677C13.2724 16.1552 12.9312 16.1777 12.6514 16.0277L9.32966 14.2952C9.21416 14.2337 9.08591 14.2007 8.95466 14.1969H8.75141C8.68091 14.2074 8.61191 14.2299 8.54891 14.2644L5.22641 16.0052C5.06216 16.0877 4.87616 16.117 4.69391 16.0877C4.24991 16.0037 3.95366 15.5807 4.02641 15.1344L4.69391 11.4444C4.73816 11.1752 4.64891 10.9014 4.45466 10.7102L1.74641 8.0852C1.51991 7.86545 1.44116 7.53545 1.54466 7.2377C1.64516 6.9407 1.90166 6.72395 2.21141 6.6752L5.93891 6.13445C6.22241 6.1052 6.47141 5.9327 6.59891 5.6777L8.24141 2.3102C8.28041 2.2352 8.33066 2.1662 8.39141 2.1077L8.45891 2.0552C8.49416 2.0162 8.53466 1.98395 8.57966 1.9577L8.66141 1.9277L8.78891 1.8752H9.10466C9.38666 1.90445 9.63491 2.0732 9.76466 2.3252L11.4289 5.6777C11.5489 5.92295 11.7822 6.0932 12.0514 6.13445L15.7789 6.6752C16.0939 6.7202 16.3572 6.9377 16.4614 7.2377C16.5597 7.53845 16.4749 7.86845 16.2439 8.0852L13.4389 10.7402Z" fill="white"/>
</svg>
