<svg width="106" height="49" viewBox="0 0 106 49" fill="none" xmlns="http://www.w3.org/2000/svg">
<path fill-rule="evenodd" clip-rule="evenodd" d="M99.3126 30.4698C100.229 26.5625 100.229 22.4961 99.3126 18.5888C97.989 12.9461 93.5832 8.54029 87.9405 7.2167C84.0332 6.30016 79.9668 6.30016 76.0595 7.2167C70.4168 8.54029 66.011 12.9461 64.6874 18.5888C63.7709 22.4961 63.7709 26.5625 64.6874 30.4698C66.011 36.1125 70.4168 40.5183 76.0595 41.8419C79.9668 42.7584 84.0332 42.7584 87.9405 41.8419C93.5832 40.5183 97.989 36.1125 99.3126 30.4698ZM83.1023 18.9305C83.5509 18.4819 84.2783 18.4819 84.7269 18.9305L89.5133 23.717C89.7287 23.9324 89.8498 24.2246 89.8498 24.5292C89.8498 24.8339 89.7287 25.1261 89.5133 25.3415L84.7269 30.128C84.2783 30.5766 83.5509 30.5766 83.1023 30.128C82.6537 29.6793 82.6537 28.952 83.1023 28.5034L85.9277 25.678L75.299 25.678C74.6646 25.678 74.1503 25.1637 74.1503 24.5292C74.1503 23.8948 74.6646 23.3805 75.299 23.3805L85.9277 23.3805L83.1023 20.5551C82.6537 20.1065 82.6537 19.3791 83.1023 18.9305Z" fill="#FE5B3E" fill-opacity="0.5"/>
<path fill-rule="evenodd" clip-rule="evenodd" d="M6.68739 30.4698C5.77086 26.5625 5.77087 22.4961 6.68739 18.5888C8.01099 12.9461 12.4168 8.54029 18.0595 7.2167C21.9668 6.30016 26.0332 6.30016 29.9405 7.2167C35.5832 8.54029 39.989 12.9461 41.3126 18.5888C42.2291 22.4961 42.2291 26.5625 41.3126 30.4698C39.989 36.1125 35.5832 40.5183 29.9405 41.8419C26.0332 42.7584 21.9668 42.7584 18.0595 41.8419C12.4168 40.5183 8.01098 36.1125 6.68739 30.4698ZM22.8977 18.9305C22.4491 18.4819 21.7217 18.4819 21.2731 18.9305L16.4867 23.717C16.2713 23.9324 16.1502 24.2246 16.1502 24.5292C16.1502 24.8339 16.2713 25.1261 16.4867 25.3415L21.2731 30.128C21.7217 30.5766 22.4491 30.5766 22.8977 30.128C23.3463 29.6793 23.3463 28.952 22.8977 28.5034L20.0723 25.678L30.701 25.678C31.3354 25.678 31.8497 25.1637 31.8497 24.5292C31.8497 23.8948 31.3354 23.3805 30.701 23.3805L20.0723 23.3805L22.8977 20.5551C23.3463 20.1065 23.3463 19.3791 22.8977 18.9305Z" fill="#FE5B3E"/>
</svg>
