<svg width="352" height="410" viewBox="0 0 352 410" fill="none" xmlns="http://www.w3.org/2000/svg">
<circle cx="151.481" cy="151.481" r="151.481" transform="matrix(-1 0 0 1 337.649 90.6986)" fill="url(#paint0_linear_1_1675)"/>
<mask id="mask0_1_1675" style="mask-type:alpha" maskUnits="userSpaceOnUse" x="34" y="90" width="304" height="304">
<circle cx="151.481" cy="151.481" r="151.481" transform="matrix(-1 0 0 1 337.649 90.6986)" fill="url(#paint1_linear_1_1675)"/>
</mask>
<g mask="url(#mask0_1_1675)">
<path d="M401.172 331.518C373.158 345.148 341.966 340.382 312.029 342.305C294.886 343.392 277.409 343.894 260.266 342.556C242.537 341.218 226.064 342.723 208.419 345.316C179.569 349.664 152.14 339.629 123.624 337.873C88.502 335.783 53.0455 338.793 17.9234 338.124C12.4879 338.04 12.4879 328.256 17.9234 328.089C53.0455 327.504 88.502 327.587 123.624 328.507C152.14 329.26 182.579 333.358 210.928 328.34C243.039 322.654 275.151 328.173 307.43 325.162C338.371 322.236 369.144 323.908 400.085 322.152C405.019 321.985 405.019 329.678 401.172 331.518Z" fill="white" fill-opacity="0.2"/>
<path d="M392.308 297.651C375.75 296.898 358.858 300.327 342.133 300.494C324.991 300.578 307.931 302.334 290.788 302.501C273.645 302.752 256.502 302.501 239.36 302.668C222.217 302.835 205.492 306.18 188.433 307.435C154.816 309.776 120.613 307.853 86.9966 307.853C78.9688 307.853 70.1883 306.515 62.244 307.435C56.1394 308.187 49.8676 310.278 43.7631 311.365C33.7282 313.038 18.425 320.146 8.89188 313.038C0.52948 306.766 8.64102 290.71 16.5853 297.4C20.9337 301.079 31.3867 296.313 36.4041 295.895C43.0104 295.309 49.4495 295.058 55.9722 293.888C70.2719 291.463 85.5751 293.302 100.042 293.302C132.823 293.302 166.105 295.477 198.802 292.383C214.607 290.877 229.659 289.121 245.631 289.205C263.694 289.288 282.008 290.626 300.154 289.623C329.841 287.95 364.043 283.184 392.81 294.222C394.231 294.808 394.064 297.734 392.308 297.651Z" fill="white" fill-opacity="0.2"/>
<path d="M401.423 273.065C383.36 274.988 365.799 270.472 347.736 269.887C330.092 269.301 312.447 270.723 294.802 269.72C258.175 267.629 222.217 262.611 185.422 262.779C167.778 262.862 149.966 261.859 132.405 263.197C117.269 264.368 102.467 268.632 87.2477 269.385C72.6135 270.138 58.1465 272.646 43.596 274.068C27.6238 275.657 11.568 279.671 -4.40421 279.504C-15.2753 279.336 -15.1917 258.765 -4.40421 259.517C25.9513 261.608 56.8086 252.075 87.2477 251.239C102.384 250.82 117.269 246.305 132.405 245.301C149.966 244.131 167.861 245.134 185.422 245.218C222.217 245.301 258.175 250.57 294.802 252.911C311.694 253.998 328.67 252.744 345.562 253.413C364.461 254.165 382.775 259.935 401.423 262.862C406.859 263.615 407.109 272.396 401.423 273.065Z" fill="white" fill-opacity="0.2"/>
<path d="M388.378 229.831C370.649 230.751 353.256 232.424 335.444 232.173C318.635 231.922 301.743 230.918 284.935 230.417C251.652 229.413 218.37 230.082 185.088 230.333C153.394 230.584 121.952 232.256 90.1745 232.256C72.7807 232.256 55.4705 232.256 38.0768 232.34C30.2997 232.34 22.4391 231.922 14.662 232.34C6.46686 232.842 -1.39377 235.518 -9.58893 236.019C-18.7876 236.605 -18.8712 219.044 -9.58893 219.044C6.29962 218.876 22.1046 216.535 38.0768 216.535C54.6343 216.535 71.2755 216.535 87.833 216.619C120.363 216.619 152.558 215.113 185.088 215.448C217.534 215.782 250.064 215.615 282.51 217.12C317.883 218.793 353.088 223.309 388.378 225.315C390.886 225.399 390.886 229.664 388.378 229.831Z" fill="white" fill-opacity="0.2"/>
<path d="M389.632 196.131C371.485 197.385 353.339 195.378 335.193 195.462C316.544 195.545 297.896 195.88 279.248 195.964C241.868 196.047 204.488 191.95 167.108 193.288C132.07 194.542 97.0314 196.465 62.0766 193.455C48.9477 192.284 36.7386 192.117 23.6096 194.124C11.4005 195.964 -1.22672 198.723 -13.5194 198.389C-22.4672 198.138 -22.4672 181.413 -13.5194 181.915C11.3169 183.336 35.8187 174.305 60.9059 177.483C77.7143 179.657 95.2753 178.988 112.251 179.239C130.732 179.49 148.795 178.319 167.192 177.734C204.572 176.563 241.952 181.162 279.332 181.329C297.227 181.413 315.123 180.995 332.935 181.998C352.252 183.086 370.566 187.936 389.715 190.444C392.642 190.863 392.809 195.964 389.632 196.131Z" fill="white" fill-opacity="0.2"/>
<path d="M381.855 160.423C347.569 165.357 311.527 163.601 276.99 163.517C240.196 163.434 203.903 157.078 167.109 157.831C149.046 158.249 130.983 156.326 112.92 156.242C96.1118 156.242 79.4706 159.169 62.7458 159.336C46.9409 159.504 31.4705 162.932 15.8328 164.27C8.30661 164.939 1.53305 163.35 -5.90948 164.855C-12.5994 166.193 -19.7074 165.524 -26.481 165.441C-35.0942 165.441 -35.0942 149.469 -26.481 149.469C-19.3729 149.469 -12.9339 149.469 -5.99307 148.131C1.70032 146.625 9.22644 149.134 16.9199 148.047C31.6377 146.04 46.1883 143.448 60.9897 143.113C77.6309 142.779 94.0212 139.935 110.662 140.019C129.478 140.103 148.293 141.859 167.192 141.608C203.318 141.19 238.774 147.796 274.816 148.298C293.13 148.549 311.36 148.214 329.674 148.883C338.538 149.218 347.569 149.05 356.433 150.054C365.047 151.057 373.325 153.65 381.939 154.57C384.949 155.071 384.865 160.005 381.855 160.423Z" fill="white" fill-opacity="0.2"/>
</g>
<circle opacity="0.5" cx="175.831" cy="175.831" r="175.358" transform="matrix(-1 0 0 1 351.661 57.868)" stroke="#A8A8A8" stroke-width="0.944809"/>
<defs>
<linearGradient id="paint0_linear_1_1675" x1="98.9379" y1="182.6" x2="220.278" y2="39.1464" gradientUnits="userSpaceOnUse">
<stop stop-color="#FE5B3E"/>
<stop offset="1" stop-color="#FE7B49"/>
</linearGradient>
<linearGradient id="paint1_linear_1_1675" x1="151.481" y1="0" x2="151.481" y2="302.963" gradientUnits="userSpaceOnUse">
<stop stop-color="#FE5B3E"/>
<stop offset="1" stop-color="#FE7B49"/>
</linearGradient>
</defs>
</svg>
