<svg width="58" height="58" viewBox="0 0 58 58" fill="none" xmlns="http://www.w3.org/2000/svg">
<g filter="url(#filter0_d_1_1617)">
<rect x="13.7399" y="7.82434" width="28.2595" height="28.2595" rx="14.1297" fill="white"/>
<rect x="13.1511" y="7.23559" width="29.437" height="29.437" rx="14.7185" stroke="white" stroke-width="1.1775"/>
</g>
<g clip-path="url(#clip0_1_1617)">
<path d="M27.8698 7.82446V36.0846C35.6738 36.0846 42 29.7583 42 21.9547C42 14.1502 35.6738 7.82446 27.8698 7.82446Z" fill="#252F6B"/>
<path d="M27.8697 7.82434C20.0661 7.82434 13.7399 14.1503 13.7399 21.9544C13.7399 29.758 20.0661 36.0842 27.8697 36.0842C35.6737 36.0842 35.6737 7.82434 27.8697 7.82434Z" fill="#273375"/>
<path d="M23.4303 29.484L24.3831 28.2961L22.9111 28.5627L22.4004 27.1368L21.8453 28.5627L20.3425 28.2961L21.2976 29.4578L20.3059 30.6182L21.8174 30.3809L22.3272 31.7773L22.8826 30.3815L24.4242 30.657L23.4303 29.484Z" fill="#F3F4F5"/>
<path d="M34.6932 30.5333L35.2336 29.8602L34.3992 30.0112L34.1098 29.2034L33.7952 30.0112L32.9436 29.8602L33.4849 30.5181L32.9231 31.1761L33.7794 31.0413L34.0683 31.8323L34.3829 31.0418L35.2566 31.198L34.6932 30.5333Z" fill="#F3F4F5"/>
<path d="M34.6932 15.6594L35.2336 14.9861L34.3992 15.1373L34.1098 14.3295L33.7952 15.1373L32.9436 14.9861L33.4849 15.6445L32.9231 16.302L33.7794 16.1674L34.0683 16.9588L34.3829 16.1679L35.2566 16.3238L34.6932 15.6594Z" fill="#F3F4F5"/>
<path d="M38.1888 19.5067L38.7287 18.8333L37.8948 18.9846L37.6054 18.1768L37.2908 18.9846L36.4387 18.8333L36.98 19.4917L36.4182 20.1495L37.2745 20.0147L37.5634 20.8061L37.878 20.0152L38.7517 20.1711L38.1888 19.5067Z" fill="#F3F4F5"/>
<path d="M31.6693 21.2177L32.2097 20.5445L31.3753 20.6958L31.0859 19.8879L30.7714 20.6958L29.9199 20.5445L30.461 21.2025L29.8994 21.8604L30.7557 21.7259L31.0447 22.5166L31.3592 21.7263L32.2329 21.8823L31.6693 21.2177Z" fill="#F3F4F5"/>
<path d="M16.7075 13.2969C16.4857 13.5827 16.274 13.8761 16.0739 14.1784H17.5885L16.7075 13.2969Z" fill="#29337A"/>
<path d="M24.0043 21.955H25.3654L24.0043 20.5939V21.955Z" fill="#29337A"/>
<path d="M19.4923 10.5773C19.1681 10.8165 18.856 11.0701 18.5537 11.3354L19.4923 12.2736V10.5773Z" fill="#29337A"/>
<path d="M18.1307 21.9546H19.4923V20.593L18.1307 21.9546Z" fill="#29337A"/>
<path d="M27.8698 7.82483C26.529 7.82483 25.2336 8.01557 24.0043 8.36476V12.2736L27.8703 8.40778V7.82483H27.8698Z" fill="#29337A"/>
<path d="M27.8703 20.6515V18.6897H25.9086L27.8703 20.6515Z" fill="#29337A"/>
<path d="M14.323 21.9542L17.5881 18.6897H14.1235C13.8752 19.7381 13.74 20.8302 13.74 21.9542H14.323Z" fill="#29337A"/>
<path d="M25.9071 14.1775H27.8702V12.2148L25.9071 14.1775Z" fill="#29337A"/>
<path d="M27.87 21.0635V20.6514L25.9082 18.6896H27.87V17.9871H24.7936L27.87 21.0635Z" fill="white"/>
<path d="M17.5884 14.1767H16.0737C15.9225 14.4058 15.7787 14.6403 15.6406 14.8786H18.6162L16.8501 13.1129C16.8017 13.1732 16.7541 13.2341 16.7071 13.2949L17.5884 14.1767Z" fill="white"/>
<path d="M19.4922 20.5917V21.9533H20.1943V19.5638L17.8051 21.9533H18.1306L19.4922 20.5917Z" fill="white"/>
<path d="M24.004 8.36353C23.7673 8.4307 23.5335 8.50385 23.3021 8.5826V13.3004L27.87 8.73277V8.40726L24.004 12.2723V8.36353Z" fill="white"/>
<path d="M19.4674 18.6894L19.4921 18.6646L20.1697 17.9871H14.3085C14.2409 18.2188 14.1791 18.4529 14.1233 18.6894H17.5879L14.3228 21.9539H16.2027L19.4674 18.6894Z" fill="white"/>
<path d="M14.3228 21.9534L17.5879 18.689L14.3228 21.9534Z" fill="white"/>
<path d="M27.87 14.8791V14.177H25.9069L27.87 12.2143V10.3348L23.3256 14.8791H27.87Z" fill="white"/>
<path d="M27.87 12.2141L25.9069 14.1768L27.87 12.2141Z" fill="white"/>
<path d="M19.4921 12.2725L18.5535 11.3343C18.2207 11.6268 17.9011 11.9347 17.597 12.2573L19.4921 14.1524L19.5122 14.1729L20.1943 14.855V10.0923C19.9556 10.2473 19.7206 10.4073 19.4924 10.576V12.2725H19.4921Z" fill="white"/>
<path d="M24.004 20.5927L25.3652 21.9539H27.1586L23.3019 18.0975V21.9539H24.004V20.5927Z" fill="white"/>
<path d="M19.4923 14.1539L19.5133 14.1754L19.4923 14.1539Z" fill="#D32030"/>
<path d="M25.4957 18.6898L24.7937 17.9875H27.8702V14.8796H23.3257L23.3023 14.9035V14.8796H23.3257L27.8702 10.3356V8.73318L23.302 13.3011V8.58325C22.1979 8.96055 21.156 9.46964 20.1942 10.0932V14.8557L20.2185 14.8795H20.1942V14.8557L19.5121 14.1737L19.5161 14.1777H19.4923V14.1533L17.5972 12.2583C17.3371 12.5336 17.0878 12.8187 16.8502 13.1141L18.6163 14.8798H15.6408C15.0785 15.849 14.629 16.8904 14.3086 17.9876H20.1698L20.1942 17.9629V17.9876H20.1698L19.4923 18.6653V18.69H19.4675L16.2028 21.9543H17.8052L20.1944 19.5648V21.9543H23.3023V18.0979L27.1587 21.9543H27.689C27.7495 21.8912 27.8111 21.8285 27.8704 21.7636V21.0636L25.4957 18.6898Z" fill="#D32030"/>
<path d="M23.3021 13.3018L27.8703 8.73389L23.3021 13.3018Z" fill="#D32030"/>
<path d="M19.4928 18.6903V18.6648L19.4675 18.6903H19.4928Z" fill="#D32030"/>
<path d="M20.1948 17.9628L20.1698 17.988H20.1948V17.9628Z" fill="#D32030"/>
<path d="M23.3021 14.9044L23.3266 14.8798H23.3021V14.9044Z" fill="#D32030"/>
<path d="M19.4923 14.1787H19.5169L19.5128 14.1749L19.4923 14.1539V14.1787Z" fill="#D32030"/>
<path d="M20.2192 14.8804L20.1945 14.8558V14.8804H20.2192Z" fill="#D32030"/>
</g>
<defs>
<filter id="filter0_d_1_1617" x="0.521789" y="0.493783" width="57.0507" height="57.0507" filterUnits="userSpaceOnUse" color-interpolation-filters="sRGB">
<feFlood flood-opacity="0" result="BackgroundImageFix"/>
<feColorMatrix in="SourceAlpha" type="matrix" values="0 0 0 0 0 0 0 0 0 0 0 0 0 0 0 0 0 0 127 0" result="hardAlpha"/>
<feOffset dx="1.1775" dy="7.06503"/>
<feGaussianBlur stdDeviation="6.60905"/>
<feColorMatrix type="matrix" values="0 0 0 0 0.215686 0 0 0 0 0.215686 0 0 0 0 0.215686 0 0 0 0.3 0"/>
<feBlend mode="normal" in2="BackgroundImageFix" result="effect1_dropShadow_1_1617"/>
<feBlend mode="normal" in="SourceGraphic" in2="effect1_dropShadow_1_1617" result="shape"/>
</filter>
<clipPath id="clip0_1_1617">
<rect width="28.2601" height="28.2601" fill="white" transform="translate(13.7399 7.82434)"/>
</clipPath>
</defs>
</svg>
