<svg width="58" height="59" viewBox="0 0 58 59" fill="none" xmlns="http://www.w3.org/2000/svg">
<g filter="url(#filter0_d_1_1659)">
<rect x="14" y="8.31458" width="28.2595" height="28.2595" rx="14.1297" fill="white"/>
<rect x="13.4112" y="7.72582" width="29.437" height="29.437" rx="14.7185" stroke="white" stroke-width="1.1775"/>
</g>
<g clip-path="url(#clip0_1_1659)">
<path d="M28.1301 36.5747C35.9339 36.5747 42.2601 30.2484 42.2601 22.4446C42.2601 14.6408 35.9339 8.31458 28.1301 8.31458C20.3262 8.31458 14 14.6408 14 22.4446C14 30.2484 20.3262 36.5747 28.1301 36.5747Z" fill="#F0F0F0"/>
<path d="M42.2601 22.4449C42.2601 16.8429 39 12.0025 34.2736 9.71692V35.1728C39 32.8873 42.2601 28.0469 42.2601 22.4449Z" fill="#D80027"/>
<path d="M14 22.4449C14 28.0469 17.2601 32.8873 21.9866 35.1729V9.71692C17.2601 12.0025 14 16.8429 14 22.4449Z" fill="#6DA544"/>
<path d="M24.444 22.4444C24.444 24.4802 26.0943 26.1305 28.1301 26.1305C30.1659 26.1305 31.8162 24.4802 31.8162 22.4444V21.2157H24.444V22.4444Z" fill="#6DA544"/>
<path d="M33.0449 19.9874H29.3587C29.3587 19.3088 28.8086 18.7587 28.13 18.7587C27.4515 18.7587 26.9013 19.3088 26.9013 19.9874H23.2152C23.2152 20.666 23.8063 21.2161 24.4848 21.2161H24.4439C24.4439 21.8947 24.994 22.4448 25.6726 22.4448C25.6726 23.1234 26.2227 23.6735 26.9013 23.6735H29.3587C30.0374 23.6735 30.5875 23.1234 30.5875 22.4448C31.2661 22.4448 31.8162 21.8947 31.8162 21.2161H31.7752C32.4538 21.2161 33.0449 20.666 33.0449 19.9874Z" fill="#FF9811"/>
</g>
<defs>
<filter id="filter0_d_1_1659" x="0.781921" y="0.984018" width="57.0506" height="57.0507" filterUnits="userSpaceOnUse" color-interpolation-filters="sRGB">
<feFlood flood-opacity="0" result="BackgroundImageFix"/>
<feColorMatrix in="SourceAlpha" type="matrix" values="0 0 0 0 0 0 0 0 0 0 0 0 0 0 0 0 0 0 127 0" result="hardAlpha"/>
<feOffset dx="1.1775" dy="7.06503"/>
<feGaussianBlur stdDeviation="6.60905"/>
<feColorMatrix type="matrix" values="0 0 0 0 0.215686 0 0 0 0 0.215686 0 0 0 0 0.215686 0 0 0 0.3 0"/>
<feBlend mode="normal" in2="BackgroundImageFix" result="effect1_dropShadow_1_1659"/>
<feBlend mode="normal" in="SourceGraphic" in2="effect1_dropShadow_1_1659" result="shape"/>
</filter>
<clipPath id="clip0_1_1659">
<rect width="28.2601" height="28.2601" fill="white" transform="translate(14 8.31458)"/>
</clipPath>
</defs>
</svg>
