<svg width="58" height="58" viewBox="0 0 58 58" fill="none" xmlns="http://www.w3.org/2000/svg">
<g filter="url(#filter0_d_1_1609)">
<rect x="13.573" y="8" width="28.2595" height="28.2595" rx="14.1297" fill="white"/>
<rect x="12.9842" y="7.41125" width="29.437" height="29.437" rx="14.7185" stroke="white" stroke-width="1.1775"/>
</g>
<g clip-path="url(#clip0_1_1609)">
<path d="M27.7031 36.2601C35.5069 36.2601 41.8331 29.9339 41.8331 22.1301C41.8331 14.3262 35.5069 8 27.7031 8C19.8992 8 13.573 14.3262 13.573 22.1301C13.573 29.9339 19.8992 36.2601 27.7031 36.2601Z" fill="#F0F0F0"/>
<path d="M41.8331 22.13C41.8331 16.0545 37.9985 10.8753 32.6178 8.87878V35.3812C37.9985 33.3847 41.8331 28.2054 41.8331 22.13Z" fill="#D80027"/>
<path d="M13.573 22.13C13.573 28.2054 17.4076 33.3847 22.7883 35.3811V8.87878C17.4076 10.8753 13.573 16.0545 13.573 22.13Z" fill="#0052B4"/>
</g>
<defs>
<filter id="filter0_d_1_1609" x="0.354919" y="0.669443" width="57.0507" height="57.0507" filterUnits="userSpaceOnUse" color-interpolation-filters="sRGB">
<feFlood flood-opacity="0" result="BackgroundImageFix"/>
<feColorMatrix in="SourceAlpha" type="matrix" values="0 0 0 0 0 0 0 0 0 0 0 0 0 0 0 0 0 0 127 0" result="hardAlpha"/>
<feOffset dx="1.1775" dy="7.06503"/>
<feGaussianBlur stdDeviation="6.60905"/>
<feColorMatrix type="matrix" values="0 0 0 0 0.215686 0 0 0 0 0.215686 0 0 0 0 0.215686 0 0 0 0.3 0"/>
<feBlend mode="normal" in2="BackgroundImageFix" result="effect1_dropShadow_1_1609"/>
<feBlend mode="normal" in="SourceGraphic" in2="effect1_dropShadow_1_1609" result="shape"/>
</filter>
<clipPath id="clip0_1_1609">
<rect width="28.2601" height="28.2601" fill="white" transform="translate(13.573 8)"/>
</clipPath>
</defs>
</svg>
