<svg width="100" height="16" viewBox="0 0 100 16" fill="none" xmlns="http://www.w3.org/2000/svg">
<path d="M11.9457 9.54675C11.773 9.71408 11.6937 9.95608 11.733 10.1934L12.3257 13.4734C12.3757 13.7514 12.2584 14.0328 12.0257 14.1934C11.7977 14.3601 11.4944 14.3801 11.2457 14.2468L8.29305 12.7067C8.19038 12.6521 8.07638 12.6228 7.95971 12.6194H7.77905C7.71638 12.6288 7.65505 12.6487 7.59905 12.6794L4.64571 14.2268C4.49971 14.3001 4.33438 14.3261 4.17238 14.3001C3.77771 14.2254 3.51438 13.8494 3.57905 13.4528L4.17238 10.1727C4.21171 9.93342 4.13238 9.69008 3.95971 9.52008L1.55238 7.18675C1.35105 6.99142 1.28105 6.69808 1.37305 6.43342C1.46238 6.16942 1.69038 5.97675 1.96571 5.93342L5.27905 5.45275C5.53105 5.42675 5.75238 5.27342 5.86571 5.04675L7.32571 2.05341C7.36038 1.98675 7.40505 1.92541 7.45905 1.87341L7.51905 1.82675C7.55038 1.79208 7.58638 1.76341 7.62638 1.74008L7.69905 1.71341L7.81238 1.66675H8.09305C8.34371 1.69275 8.56438 1.84275 8.67971 2.06675L10.159 5.04675C10.2657 5.26475 10.473 5.41608 10.7124 5.45275L14.0257 5.93342C14.3057 5.97342 14.5397 6.16675 14.6324 6.43342C14.7197 6.70075 14.6444 6.99408 14.439 7.18675L11.9457 9.54675Z" fill="#FE5B3E"/>
<path d="M32.9457 9.54675C32.773 9.71408 32.6937 9.95608 32.733 10.1934L33.3257 13.4734C33.3757 13.7514 33.2584 14.0328 33.0257 14.1934C32.7977 14.3601 32.4944 14.3801 32.2457 14.2468L29.293 12.7067C29.1904 12.6521 29.0764 12.6228 28.9597 12.6194H28.779C28.7164 12.6288 28.655 12.6487 28.599 12.6794L25.6457 14.2268C25.4997 14.3001 25.3344 14.3261 25.1724 14.3001C24.7777 14.2254 24.5144 13.8494 24.579 13.4528L25.1724 10.1727C25.2117 9.93342 25.1324 9.69008 24.9597 9.52008L22.5524 7.18675C22.351 6.99142 22.281 6.69808 22.373 6.43342C22.4624 6.16942 22.6904 5.97675 22.9657 5.93342L26.279 5.45275C26.531 5.42675 26.7524 5.27342 26.8657 5.04675L28.3257 2.05341C28.3604 1.98675 28.405 1.92541 28.459 1.87341L28.519 1.82675C28.5504 1.79208 28.5864 1.76341 28.6264 1.74008L28.699 1.71341L28.8124 1.66675H29.093C29.3437 1.69275 29.5644 1.84275 29.6797 2.06675L31.159 5.04675C31.2657 5.26475 31.473 5.41608 31.7124 5.45275L35.0257 5.93342C35.3057 5.97342 35.5397 6.16675 35.6324 6.43342C35.7197 6.70075 35.6444 6.99408 35.439 7.18675L32.9457 9.54675Z" fill="#FE5B3E"/>
<path d="M53.9457 9.54675C53.773 9.71408 53.6937 9.95608 53.733 10.1934L54.3257 13.4734C54.3757 13.7514 54.2584 14.0328 54.0257 14.1934C53.7977 14.3601 53.4944 14.3801 53.2457 14.2468L50.293 12.7067C50.1904 12.6521 50.0764 12.6228 49.9597 12.6194H49.779C49.7164 12.6288 49.655 12.6487 49.599 12.6794L46.6457 14.2268C46.4997 14.3001 46.3344 14.3261 46.1724 14.3001C45.7777 14.2254 45.5144 13.8494 45.579 13.4528L46.1724 10.1727C46.2117 9.93342 46.1324 9.69008 45.9597 9.52008L43.5524 7.18675C43.351 6.99142 43.281 6.69808 43.373 6.43342C43.4624 6.16942 43.6904 5.97675 43.9657 5.93342L47.279 5.45275C47.531 5.42675 47.7524 5.27342 47.8657 5.04675L49.3257 2.05341C49.3604 1.98675 49.405 1.92541 49.459 1.87341L49.519 1.82675C49.5504 1.79208 49.5864 1.76341 49.6264 1.74008L49.699 1.71341L49.8124 1.66675H50.093C50.3437 1.69275 50.5644 1.84275 50.6797 2.06675L52.159 5.04675C52.2657 5.26475 52.473 5.41608 52.7124 5.45275L56.0257 5.93342C56.3057 5.97342 56.5397 6.16675 56.6324 6.43342C56.7197 6.70075 56.6444 6.99408 56.439 7.18675L53.9457 9.54675Z" fill="#FE5B3E"/>
<path d="M74.9457 9.54675C74.773 9.71408 74.6937 9.95608 74.733 10.1934L75.3257 13.4734C75.3757 13.7514 75.2584 14.0328 75.0257 14.1934C74.7977 14.3601 74.4944 14.3801 74.2457 14.2468L71.293 12.7067C71.1904 12.6521 71.0764 12.6228 70.9597 12.6194H70.779C70.7164 12.6288 70.655 12.6487 70.599 12.6794L67.6457 14.2268C67.4997 14.3001 67.3344 14.3261 67.1724 14.3001C66.7777 14.2254 66.5144 13.8494 66.579 13.4528L67.1724 10.1727C67.2117 9.93342 67.1324 9.69008 66.9597 9.52008L64.5524 7.18675C64.351 6.99142 64.281 6.69808 64.373 6.43342C64.4624 6.16942 64.6904 5.97675 64.9657 5.93342L68.279 5.45275C68.531 5.42675 68.7524 5.27342 68.8657 5.04675L70.3257 2.05341C70.3604 1.98675 70.405 1.92541 70.459 1.87341L70.519 1.82675C70.5504 1.79208 70.5864 1.76341 70.6264 1.74008L70.699 1.71341L70.8124 1.66675H71.093C71.3437 1.69275 71.5644 1.84275 71.6797 2.06675L73.159 5.04675C73.2657 5.26475 73.473 5.41608 73.7124 5.45275L77.0257 5.93342C77.3057 5.97342 77.5397 6.16675 77.6324 6.43342C77.7197 6.70075 77.6444 6.99408 77.439 7.18675L74.9457 9.54675Z" fill="#FE5B3E"/>
<path d="M95.9457 9.54675C95.773 9.71408 95.6937 9.95608 95.733 10.1934L96.3257 13.4734C96.3757 13.7514 96.2584 14.0328 96.0257 14.1934C95.7977 14.3601 95.4944 14.3801 95.2457 14.2468L92.293 12.7067C92.1904 12.6521 92.0764 12.6228 91.9597 12.6194H91.779C91.7164 12.6288 91.655 12.6487 91.599 12.6794L88.6457 14.2268C88.4997 14.3001 88.3344 14.3261 88.1724 14.3001C87.7777 14.2254 87.5144 13.8494 87.579 13.4528L88.1724 10.1727C88.2117 9.93342 88.1324 9.69008 87.9597 9.52008L85.5524 7.18675C85.351 6.99142 85.281 6.69808 85.373 6.43342C85.4624 6.16942 85.6904 5.97675 85.9657 5.93342L89.279 5.45275C89.531 5.42675 89.7524 5.27342 89.8657 5.04675L91.3257 2.05341C91.3604 1.98675 91.405 1.92541 91.459 1.87341L91.519 1.82675C91.5504 1.79208 91.5864 1.76341 91.6264 1.74008L91.699 1.71341L91.8124 1.66675H92.093C92.3437 1.69275 92.5644 1.84275 92.6797 2.06675L94.159 5.04675C94.2657 5.26475 94.473 5.41608 94.7124 5.45275L98.0257 5.93342C98.3057 5.97342 98.5397 6.16675 98.6324 6.43342C98.7197 6.70075 98.6444 6.99408 98.439 7.18675L95.9457 9.54675Z" fill="#FE5B3E"/>
</svg>
