<svg width="40" height="40" viewBox="0 0 40 40" fill="none" xmlns="http://www.w3.org/2000/svg">
<g clip-path="url(#clip0_1_1860)">
<path d="M24.5153 12.5576L25.6243 12.3084C25.7952 11.9256 26.0461 11.591 26.3543 11.3272C25.3119 11.0799 24.4299 10.4144 23.8964 9.51758L22.8092 9.76185C23.7391 10.3816 24.3867 11.3924 24.5153 12.5576Z" fill="#FE5B3E"/>
<path d="M13.8954 38.0484L15.4572 31.8953C15.4896 31.768 15.5324 31.6436 15.5852 31.5233L15.7261 31.2031C15.4795 31.032 15.2942 30.8042 15.1718 30.5234C15.0663 31.4625 14.4092 32.237 13.5328 32.5139C13.3421 32.9838 12.9234 33.3371 12.4142 33.4357L11.7647 37.804C11.6136 38.8206 12.3152 39.7674 13.3318 39.9185C13.6011 39.9585 13.8769 39.9415 14.1599 39.8529C13.8466 39.3296 13.7336 38.6864 13.8954 38.0484Z" fill="#FE5B3E"/>
<path d="M16.1047 23.8496C16.0562 23.8389 15.2799 23.6691 15.1583 23.6425C15.1772 23.7626 15.1871 23.8856 15.1871 24.0109V28.8642C15.4004 27.6993 15.8663 25.153 16.1047 23.8496Z" fill="#FE5B3E"/>
<path d="M21.1263 15.8382C22.7005 15.583 23.7699 14.0999 23.5147 12.5256C23.2595 10.9513 21.7764 9.88195 20.2021 10.1372C18.6278 10.3924 17.5584 11.8755 17.8137 13.4498C18.0689 15.0241 19.552 16.0934 21.1263 15.8382Z" fill="#FE5B3E"/>
<path d="M23.5327 30.4938H24.7367C25.1034 30.4938 25.3821 30.1295 25.3104 29.7377L25.2656 29.4929C25.0196 29.3996 24.7942 29.2488 24.6108 29.0497C24.2697 28.6793 24.0991 28.1752 24.1429 27.6668L24.395 24.7351L23.7769 21.3566L22.6611 21.4889C21.7791 21.5934 20.9532 21.2002 20.4635 20.5311L18.6466 23.4693C18.0846 24.3781 17.0753 24.0589 17.0654 24.0596L16.0264 29.7378C15.9548 30.1297 16.2321 30.4939 16.6001 30.4939H17.1402L16.5088 31.9296C16.4784 31.9988 16.4537 32.0703 16.4352 32.1436L14.8734 38.2966C14.6877 39.0281 15.1302 39.7717 15.8617 39.9573C16.5929 40.1429 17.3367 39.7006 17.5224 38.969L19.0562 32.926L20.126 30.4939H20.7998V31.4768V33.1715C20.7998 33.344 20.8324 33.515 20.896 33.6753L23.062 39.1365C23.3398 39.837 24.1334 40.1816 24.836 39.903C25.0001 39.838 25.1436 39.7438 25.2651 39.6301C25.0196 39.1895 24.8888 38.6778 24.9119 38.1369L24.9792 36.5573L23.5328 32.9104V31.4768V30.4938H23.5327Z" fill="#FE5B3E"/>
<path d="M15.7864 6.84281C17.6712 6.70102 19.0842 5.05811 18.9425 3.17327C18.8007 1.28843 17.1578 -0.124593 15.2729 0.0171951C13.3881 0.158984 11.975 1.80189 12.1168 3.68673C12.2586 5.57157 13.9015 6.9846 15.7864 6.84281Z" fill="#FE5B3E"/>
<path d="M9.52417 32.6239H8.05164C7.80189 33.1215 7.28804 33.4646 6.69445 33.4646H6.59098L5.94577 37.8045C5.79466 38.8212 6.49625 39.7679 7.51287 39.919C8.53191 40.0705 9.47661 39.3662 9.62733 38.3519L10.3675 33.3731C9.99968 33.2403 9.69793 32.9701 9.52417 32.6239Z" fill="#FE5B3E"/>
<path d="M21.2467 17.0436C20.6267 17.0436 20.126 17.0436 19.4788 17.0436C18.8221 17.0436 18.257 17.5473 18.1296 18.2441L17.9363 19.3004L19.2544 18.5445L16.8914 20.8305L13.2774 20.0396C12.7007 19.9132 12.1303 20.2788 12.004 20.8558C11.9423 21.1376 11.9985 21.4173 12.1388 21.6449H12.8214C13.5673 21.6449 14.2333 21.9922 14.6672 22.5333L16.9942 23.0426C17.3423 23.1189 17.7079 23.0166 17.9663 22.7665L20.3886 20.4232C20.1963 20.1273 20.0669 19.7841 20.0225 19.4101C19.9048 18.4165 20.4185 17.4943 21.2467 17.0436Z" fill="#FE5B3E"/>
<path d="M27.2558 10.451C28.8705 10.451 30.1795 9.14201 30.1795 7.52731C30.1795 5.91261 28.8705 4.60364 27.2558 4.60364C25.6411 4.60364 24.3322 5.91261 24.3322 7.52731C24.3322 9.14201 25.6411 10.451 27.2558 10.451Z" fill="#FE5B3E"/>
<path d="M36.5711 26.6581L32.6244 12.7314C32.3797 11.868 31.6141 11.3338 30.8192 11.4097C29.6616 11.5202 28.928 11.5903 27.8851 11.6899C27.0753 11.7672 26.4377 12.4549 26.3625 13.3292L26.1073 16.2962L26.374 16.2646L28.3432 14.3284L26.5427 17.3024L22.2254 17.8143C21.4988 17.9005 20.9796 18.5594 21.0657 19.2859C21.152 20.0136 21.8118 20.5317 22.5374 20.4456L27.4971 19.8576C27.9024 19.8095 28.2631 19.5772 28.4745 19.2281L30.61 15.7007L29.3731 19.7722C29.0118 20.9614 27.763 20.8528 27.6208 20.9008L25.6917 21.1296L25.1222 27.7511C25.0796 28.247 25.4688 28.6591 25.9187 28.6159C26.2141 28.5878 26.573 28.5535 26.9773 28.5149L26.403 30.6831C26.3716 30.8012 26.3532 30.9224 26.348 31.0445L26.0438 38.1851C26.0041 39.1192 26.729 39.9087 27.6631 39.9484C27.6876 39.9494 27.712 39.95 27.7364 39.95C28.6381 39.9499 29.3876 39.2387 29.4264 38.3292L29.7228 31.3723L30.5707 28.1717C30.7847 28.1513 30.9994 28.1308 31.2136 28.1104V31.6226C31.2136 31.7539 31.2289 31.8848 31.2591 32.0125L32.8296 38.6471C33.014 39.4257 33.7087 39.9504 34.4755 39.9504C34.6046 39.9504 34.7358 39.9355 34.8669 39.9044C35.7766 39.6891 36.3396 38.777 36.1243 37.8672L34.5994 31.425V27.7872C35.1252 27.737 35.5872 27.6929 35.9528 27.658C36.404 27.615 36.7059 27.1337 36.5711 26.6581Z" fill="#FE5B3E"/>
<path d="M17.2183 14.7373C16.5324 12.9963 16.9669 11.8524 16.9669 11.8524C17.3194 10.7028 18.1939 9.77961 19.3127 9.35985L14.7936 7.86873C12.9974 7.27608 11.0197 7.72863 9.66232 9.04584C7.70522 10.945 5.52188 13.1254 5.52188 13.1254C5.08768 13.5493 4.94071 14.1877 5.1457 14.7589L7.23533 20.5807C6.84799 20.7062 6.56693 21.0701 6.56693 21.4987C6.56771 21.9351 6.56427 22.5022 6.57099 22.5834H4.77937C4.01561 22.5834 3.39648 23.2471 3.39648 24.0108V30.2581C3.39648 31.0218 4.01561 31.641 4.77937 31.641H4.95531V31.9455C4.95531 32.2189 5.17702 32.4406 5.4505 32.4406H6.69438C6.96786 32.4406 7.18957 32.2189 7.18957 31.9455V31.641H10.3862V31.9455C10.3862 32.2189 10.6079 32.4406 10.8814 32.4406H12.1502C12.4237 32.4406 12.6454 32.2189 12.6454 31.9455V31.641H12.8214C13.5851 31.641 14.2042 31.0218 14.2042 30.2581V24.0108C14.2042 23.2471 13.5851 22.5834 12.8214 22.5834H11.0298C11.0365 22.5032 11.0329 22.0727 11.0339 21.4987C11.0339 21.0735 10.7571 20.7123 10.3745 20.5841C10.3954 20.364 10.3712 20.1364 10.2915 19.9146L8.4015 14.6487L10.8525 12.2553L9.43195 14.4729L11.2604 19.5668C11.303 19.6856 11.3359 19.8055 11.3605 19.9257C11.8181 19.2596 12.6483 18.9009 13.4865 19.0843C14.4763 19.3009 15.1309 19.4442 16.8422 19.8187C17.17 18.0724 17.1524 18.0183 17.2535 17.716C17.4787 17.0422 17.9702 16.5107 18.5855 16.2458C18.0076 15.875 17.534 15.3563 17.2183 14.7373ZM9.35581 21.8981C9.58688 21.8152 9.78485 21.6818 9.94471 21.5164H10.0509V22.5833H7.54974V21.5164H7.71803C8.13411 21.9459 8.76956 22.1085 9.35581 21.8981Z" fill="#FE5B3E"/>
</g>
<defs>
<clipPath id="clip0_1_1860">
<rect width="40" height="40" fill="white"/>
</clipPath>
</defs>
</svg>
