<svg width="319" height="276" viewBox="0 0 319 276" fill="none" xmlns="http://www.w3.org/2000/svg">
<circle cx="185.96" cy="137.234" r="130.38" fill="url(#paint0_linear_1_1901)"/>
<mask id="mask0_1_1901" style="mask-type:alpha" maskUnits="userSpaceOnUse" x="55" y="6" width="262" height="262">
<circle cx="185.96" cy="137.234" r="130.38" fill="url(#paint1_linear_1_1901)"/>
</mask>
<g mask="url(#mask0_1_1901)">
<path d="M0.906177 214.128C25.0178 225.86 51.8644 221.757 77.6314 223.412C92.3863 224.348 107.429 224.78 122.184 223.628C137.443 222.477 151.622 223.772 166.808 226.004C191.64 229.746 215.247 221.109 239.791 219.598C270.02 217.798 300.538 220.39 330.767 219.814C335.446 219.742 335.446 211.321 330.767 211.177C300.538 210.673 270.02 210.745 239.791 211.537C215.247 212.184 189.049 215.711 164.649 211.393C137.011 206.498 109.372 211.249 81.5901 208.658C54.9593 206.138 28.4726 207.578 1.84185 206.067C-2.40467 205.923 -2.40467 212.544 0.906177 214.128Z" fill="white" fill-opacity="0.2"/>
<path d="M8.53559 184.979C22.7866 184.331 37.3256 187.282 51.7205 187.426C66.4754 187.498 81.1583 189.009 95.9131 189.153C110.668 189.369 125.423 189.153 140.178 189.297C154.933 189.441 169.328 192.32 184.01 193.4C212.944 195.415 242.382 193.76 271.316 193.76C278.226 193.76 285.783 192.608 292.621 193.4C297.875 194.047 303.273 195.847 308.527 196.782C317.164 198.222 330.335 204.34 338.541 198.222C345.738 192.824 338.757 179.005 331.919 184.763C328.176 187.93 319.179 183.827 314.861 183.467C309.175 182.963 303.633 182.747 298.019 181.74C285.711 179.652 272.54 181.236 260.088 181.236C231.874 181.236 203.228 183.107 175.086 180.444C161.482 179.149 148.527 177.637 134.78 177.709C119.233 177.781 103.471 178.933 87.852 178.069C62.3008 176.629 32.8631 172.527 8.10373 182.028C6.88016 182.531 7.02411 185.051 8.53559 184.979Z" fill="white" fill-opacity="0.2"/>
<path d="M0.690242 163.816C16.2368 165.472 31.3516 161.585 46.8981 161.081C62.0849 160.577 77.2715 161.801 92.4583 160.937C123.983 159.138 154.932 154.819 186.601 154.963C201.788 155.035 217.119 154.172 232.234 155.323C245.261 156.331 258.001 160.002 271.1 160.649C283.696 161.297 296.147 163.456 308.671 164.68C322.418 166.047 336.237 169.502 349.985 169.358C359.341 169.214 359.269 151.508 349.985 152.156C323.858 153.956 297.299 145.75 271.1 145.031C258.073 144.671 245.261 140.784 232.234 139.92C217.119 138.913 201.716 139.777 186.601 139.849C154.932 139.921 123.983 144.455 92.4583 146.47C77.9193 147.406 63.3084 146.326 48.7695 146.902C32.5032 147.55 16.7406 152.516 0.690242 155.035C-3.98813 155.683 -4.20405 163.24 0.690242 163.816Z" fill="white" fill-opacity="0.2"/>
<path d="M11.9183 126.606C27.177 127.398 42.1478 128.837 57.4785 128.621C71.9454 128.405 86.4844 127.542 100.951 127.11C129.597 126.246 158.243 126.822 186.889 127.038C214.168 127.254 241.23 128.693 268.581 128.693C283.552 128.693 298.451 128.693 313.421 128.765C320.115 128.765 326.881 128.405 333.574 128.765C340.628 129.197 347.393 131.5 354.447 131.932C362.364 132.436 362.436 117.321 354.447 117.321C340.772 117.177 327.168 115.162 313.421 115.162C299.17 115.162 284.847 115.162 270.596 115.234C242.598 115.234 214.888 113.938 186.889 114.226C158.963 114.514 130.965 114.37 103.039 115.666C72.5932 117.105 42.2917 120.992 11.9183 122.719C9.75908 122.791 9.75908 126.462 11.9183 126.606Z" fill="white" fill-opacity="0.2"/>
<path d="M10.8387 97.5997C26.4573 98.6793 42.0758 96.9519 57.6944 97.0239C73.7448 97.0958 89.7952 97.3837 105.846 97.4557C138.018 97.5277 170.191 94.0009 202.364 95.1525C232.521 96.2321 262.679 97.8875 292.764 95.2964C304.065 94.2888 314.573 94.1449 325.873 95.8723C336.381 97.4557 347.249 99.8309 357.83 99.543C365.531 99.3271 365.531 84.9321 357.83 85.364C336.453 86.5875 315.365 78.8142 293.772 81.5492C279.305 83.4206 264.19 82.8448 249.58 83.0607C233.673 83.2766 218.126 82.269 202.292 81.7652C170.119 80.7576 137.946 84.7161 105.774 84.8601C90.371 84.932 74.9684 84.5722 59.6377 85.4359C43.0115 86.3716 27.249 90.5461 10.7668 92.7054C8.24763 93.0652 8.10369 97.4557 10.8387 97.5997Z" fill="white" fill-opacity="0.2"/>
<path d="M17.5325 66.8669C47.0422 71.1134 78.0634 69.602 107.789 69.53C139.458 69.4581 170.695 63.9879 202.364 64.6357C217.911 64.9956 233.457 63.3401 249.004 63.2682C263.471 63.2682 277.794 65.7873 292.189 65.9313C305.792 66.0752 319.107 69.0261 332.567 70.1777C339.044 70.7535 344.874 69.3861 351.28 70.6816C357.038 71.8332 363.156 71.2574 368.986 71.1854C376.399 71.1854 376.399 57.4382 368.986 57.4382C362.868 57.4382 357.326 57.4382 351.352 56.2866C344.73 54.9911 338.253 57.1504 331.631 56.2147C318.963 54.4873 306.44 52.256 293.7 51.9681C279.377 51.6802 265.27 49.233 250.947 49.305C234.753 49.377 218.558 50.8885 202.292 50.6726C171.199 50.3127 140.682 55.9987 109.66 56.4306C93.8979 56.6465 78.2073 56.3586 62.4448 56.9344C54.8155 57.2223 47.0422 57.0783 39.4129 57.942C31.9994 58.8057 24.8739 61.037 17.4605 61.8287C14.8694 62.2605 14.9414 66.507 17.5325 66.8669Z" fill="white" fill-opacity="0.2"/>
</g>
<g filter="url(#filter0_d_1_1901)">
<rect x="8" y="84.7559" width="76.7046" height="86.7642" rx="4.5704" fill="white"/>
</g>
<rect x="14.2871" y="91.0435" width="64.1301" height="37.7236" rx="3.04693" fill="#C4C4C4"/>
<path d="M18.406 141.311V137.899H19.0154L20.1708 140.171L21.3213 137.899H21.9307V141.311H21.4139V138.791L20.3707 140.824H19.9709L18.9228 138.796V141.311H18.406ZM23.7356 141.37C23.5049 141.37 23.2969 141.318 23.1116 141.214C22.9296 141.107 22.785 140.959 22.6777 140.77C22.5705 140.578 22.5169 140.356 22.5169 140.102C22.5169 139.849 22.5705 139.628 22.6777 139.439C22.7882 139.247 22.9361 139.1 23.1214 138.996C23.3066 138.888 23.513 138.835 23.7405 138.835C23.9713 138.835 24.1776 138.888 24.3596 138.996C24.5449 139.1 24.6911 139.247 24.7984 139.439C24.9089 139.628 24.9641 139.849 24.9641 140.102C24.9641 140.356 24.9089 140.578 24.7984 140.77C24.6911 140.959 24.5449 141.107 24.3596 141.214C24.1744 141.318 23.9664 141.37 23.7356 141.37ZM23.7356 140.926C23.8591 140.926 23.9729 140.895 24.0769 140.834C24.1841 140.772 24.2703 140.681 24.3353 140.561C24.4003 140.437 24.4328 140.284 24.4328 140.102C24.4328 139.92 24.4003 139.769 24.3353 139.649C24.2735 139.525 24.189 139.433 24.0818 139.371C23.9778 139.309 23.864 139.278 23.7405 139.278C23.617 139.278 23.5016 139.309 23.3944 139.371C23.2904 139.433 23.2059 139.525 23.1409 139.649C23.0759 139.769 23.0434 139.92 23.0434 140.102C23.0434 140.284 23.0759 140.437 23.1409 140.561C23.2059 140.681 23.2904 140.772 23.3944 140.834C23.4984 140.895 23.6121 140.926 23.7356 140.926ZM26.4151 141.37C26.1226 141.37 25.8919 141.279 25.7229 141.097C25.5571 140.915 25.4742 140.643 25.4742 140.283V138.893H25.991V140.229C25.991 140.697 26.1828 140.931 26.5663 140.931C26.758 140.931 26.9156 140.863 27.0391 140.726C27.1626 140.59 27.2244 140.395 27.2244 140.141V138.893H27.7412V141.311H27.2829L27.2439 140.887C27.1691 141.037 27.0586 141.155 26.9124 141.243C26.7694 141.328 26.6036 141.37 26.4151 141.37ZM28.3985 141.311V138.893H28.8568L28.8958 139.317C28.9705 139.168 29.0794 139.051 29.2224 138.966C29.3687 138.879 29.5361 138.835 29.7246 138.835C30.0171 138.835 30.2462 138.926 30.4119 139.108C30.5809 139.29 30.6654 139.561 30.6654 139.922V141.311H30.1536V139.976C30.1536 139.507 29.9618 139.273 29.5783 139.273C29.3865 139.273 29.2273 139.342 29.1005 139.478C28.977 139.615 28.9153 139.81 28.9153 140.063V141.311H28.3985ZM32.2881 141.311C32.0508 141.311 31.8623 141.254 31.7226 141.141C31.5828 141.024 31.513 140.817 31.513 140.522V139.327H31.0986V138.893H31.513L31.5763 138.279H32.0297V138.893H32.7122V139.327H32.0297V140.522C32.0297 140.655 32.0573 140.747 32.1126 140.799C32.1711 140.848 32.2702 140.873 32.41 140.873H32.6878V141.311H32.2881ZM34.0641 141.37C33.8593 141.37 33.6903 141.336 33.5571 141.267C33.4238 141.199 33.3247 141.11 33.2597 140.999C33.1947 140.886 33.1622 140.762 33.1622 140.629C33.1622 140.395 33.2532 140.21 33.4352 140.073C33.6172 139.937 33.8772 139.868 34.2152 139.868H34.849V139.824C34.849 139.636 34.797 139.494 34.693 139.4C34.5922 139.306 34.4606 139.259 34.2981 139.259C34.1551 139.259 34.0299 139.295 33.9227 139.366C33.8187 139.434 33.7553 139.537 33.7326 139.673H33.2158C33.2321 139.498 33.2906 139.348 33.3913 139.225C33.4953 139.098 33.6253 139.002 33.7813 138.937C33.9406 138.869 34.1144 138.835 34.303 138.835C34.641 138.835 34.9026 138.924 35.0878 139.103C35.2731 139.278 35.3657 139.519 35.3657 139.824V141.311H34.9172L34.8733 140.897C34.8051 141.03 34.706 141.142 34.576 141.233C34.446 141.324 34.2753 141.37 34.0641 141.37ZM34.1664 140.951C34.3062 140.951 34.4232 140.918 34.5175 140.853C34.615 140.785 34.6897 140.695 34.7417 140.585C34.797 140.474 34.8311 140.353 34.8441 140.219H34.2688C34.0641 140.219 33.9178 140.255 33.8301 140.327C33.7456 140.398 33.7033 140.487 33.7033 140.595C33.7033 140.705 33.7439 140.793 33.8252 140.858C33.9097 140.92 34.0234 140.951 34.1664 140.951ZM36.2608 138.435C36.1633 138.435 36.082 138.406 36.017 138.347C35.9553 138.285 35.9244 138.209 35.9244 138.118C35.9244 138.027 35.9553 137.952 36.017 137.894C36.082 137.832 36.1633 137.801 36.2608 137.801C36.3583 137.801 36.4379 137.832 36.4996 137.894C36.5646 137.952 36.5971 138.027 36.5971 138.118C36.5971 138.209 36.5646 138.285 36.4996 138.347C36.4379 138.406 36.3583 138.435 36.2608 138.435ZM36.0024 141.311V138.893H36.5191V141.311H36.0024ZM37.2013 141.311V138.893H37.6596L37.6986 139.317C37.7733 139.168 37.8822 139.051 38.0252 138.966C38.1714 138.879 38.3388 138.835 38.5273 138.835C38.8198 138.835 39.049 138.926 39.2147 139.108C39.3837 139.29 39.4682 139.561 39.4682 139.922V141.311H38.9563V139.976C38.9563 139.507 38.7646 139.273 38.3811 139.273C38.1893 139.273 38.0301 139.342 37.9033 139.478C37.7798 139.615 37.7181 139.81 37.7181 140.063V141.311H37.2013ZM42.4508 141.37C42.2005 141.37 41.9812 141.326 41.7926 141.238C41.6041 141.15 41.4563 141.025 41.349 140.863C41.245 140.7 41.1914 140.507 41.1881 140.283H41.7341C41.7374 140.465 41.8008 140.619 41.9243 140.746C42.0478 140.873 42.2217 140.936 42.4459 140.936C42.6442 140.936 42.7985 140.889 42.909 140.795C43.0228 140.697 43.0797 140.574 43.0797 140.424C43.0797 140.304 43.052 140.206 42.9968 140.132C42.9448 140.057 42.8717 139.995 42.7774 139.946C42.6864 139.898 42.5808 139.854 42.4605 139.815C42.3403 139.776 42.2135 139.733 42.0803 139.688C41.817 139.6 41.6188 139.486 41.4855 139.347C41.3555 139.207 41.2905 139.023 41.2905 138.796C41.2873 138.604 41.3311 138.437 41.4221 138.294C41.5164 138.151 41.6464 138.04 41.8122 137.962C41.9812 137.881 42.1778 137.84 42.402 137.84C42.623 137.84 42.8164 137.881 42.9822 137.962C43.1512 138.043 43.2828 138.157 43.3771 138.303C43.4713 138.446 43.5201 138.614 43.5233 138.805H42.9773C42.9773 138.718 42.9545 138.635 42.909 138.557C42.8635 138.476 42.7969 138.409 42.7092 138.357C42.6214 138.305 42.5142 138.279 42.3874 138.279C42.2249 138.276 42.09 138.316 41.9828 138.401C41.8788 138.485 41.8268 138.602 41.8268 138.752C41.8268 138.885 41.8658 138.987 41.9438 139.059C42.0218 139.13 42.129 139.191 42.2655 139.239C42.402 139.285 42.558 139.338 42.7335 139.4C42.9025 139.455 43.0537 139.522 43.1869 139.6C43.3202 139.678 43.4258 139.781 43.5038 139.907C43.5851 140.034 43.6257 140.195 43.6257 140.39C43.6257 140.562 43.5818 140.723 43.4941 140.873C43.4063 141.019 43.2747 141.139 43.0992 141.233C42.9237 141.324 42.7075 141.37 42.4508 141.37ZM45.3168 141.37C45.0796 141.37 44.8667 141.316 44.6782 141.209C44.4929 141.102 44.3467 140.954 44.2394 140.765C44.1354 140.574 44.0834 140.353 44.0834 140.102C44.0834 139.852 44.1354 139.633 44.2394 139.444C44.3467 139.252 44.4929 139.103 44.6782 138.996C44.8667 138.888 45.0796 138.835 45.3168 138.835C45.6158 138.835 45.8661 138.913 46.0676 139.069C46.2723 139.225 46.404 139.436 46.4625 139.702H45.9213C45.8888 139.569 45.8173 139.465 45.7068 139.39C45.5963 139.316 45.4663 139.278 45.3168 139.278C45.1901 139.278 45.0731 139.311 44.9658 139.376C44.8585 139.438 44.7724 139.53 44.7074 139.654C44.6424 139.774 44.6099 139.924 44.6099 140.102C44.6099 140.281 44.6424 140.432 44.7074 140.556C44.7724 140.676 44.8585 140.769 44.9658 140.834C45.0731 140.899 45.1901 140.931 45.3168 140.931C45.4663 140.931 45.5963 140.894 45.7068 140.819C45.8173 140.744 45.8888 140.639 45.9213 140.502H46.4625C46.4072 140.762 46.2772 140.972 46.0724 141.131C45.8677 141.29 45.6158 141.37 45.3168 141.37ZM48.1539 141.37C47.9232 141.37 47.7152 141.318 47.5299 141.214C47.3479 141.107 47.2033 140.959 47.096 140.77C46.9888 140.578 46.9351 140.356 46.9351 140.102C46.9351 139.849 46.9888 139.628 47.096 139.439C47.2065 139.247 47.3544 139.1 47.5397 138.996C47.7249 138.888 47.9313 138.835 48.1588 138.835C48.3895 138.835 48.5959 138.888 48.7779 138.996C48.9632 139.1 49.1094 139.247 49.2167 139.439C49.3272 139.628 49.3824 139.849 49.3824 140.102C49.3824 140.356 49.3272 140.578 49.2167 140.77C49.1094 140.959 48.9632 141.107 48.7779 141.214C48.5927 141.318 48.3847 141.37 48.1539 141.37ZM48.1539 140.926C48.2774 140.926 48.3912 140.895 48.4952 140.834C48.6024 140.772 48.6886 140.681 48.7536 140.561C48.8186 140.437 48.8511 140.284 48.8511 140.102C48.8511 139.92 48.8186 139.769 48.7536 139.649C48.6918 139.525 48.6073 139.433 48.5 139.371C48.396 139.309 48.2823 139.278 48.1588 139.278C48.0353 139.278 47.9199 139.309 47.8127 139.371C47.7087 139.433 47.6242 139.525 47.5592 139.649C47.4942 139.769 47.4617 139.92 47.4617 140.102C47.4617 140.284 47.4942 140.437 47.5592 140.561C47.6242 140.681 47.7087 140.772 47.8127 140.834C47.9167 140.895 48.0304 140.926 48.1539 140.926ZM50.8601 141.311C50.6228 141.311 50.4343 141.254 50.2946 141.141C50.1548 141.024 50.0849 140.817 50.0849 140.522V139.327H49.6706V138.893H50.0849L50.1483 138.279H50.6017V138.893H51.2842V139.327H50.6017V140.522C50.6017 140.655 50.6293 140.747 50.6846 140.799C50.7431 140.848 50.8422 140.873 50.982 140.873H51.2598V141.311H50.8601Z" fill="#221314"/>
<circle cx="26.233" cy="156.429" r="8.72599" fill="#C4C4C4" stroke="white" stroke-width="0.152347"/>
<circle cx="39.6164" cy="156.429" r="8.72599" fill="#C4C4C4" stroke="white" stroke-width="0.152347"/>
<circle cx="52.9998" cy="156.429" r="8.72599" fill="#C4C4C4" stroke="white" stroke-width="0.152347"/>
<circle cx="66.3832" cy="156.428" r="8.72599" fill="#DEDEDE" stroke="white" stroke-width="0.152347"/>
<path d="M65.1038 156.93V156.496H66.0252V155.633H66.4737V156.496H67.3951V156.93H66.4737V157.797H66.0252V156.93H65.1038Z" fill="#7A7474"/>
<defs>
<filter id="filter0_d_1_1901" x="0.382673" y="81.7089" width="91.9392" height="101.999" filterUnits="userSpaceOnUse" color-interpolation-filters="sRGB">
<feFlood flood-opacity="0" result="BackgroundImageFix"/>
<feColorMatrix in="SourceAlpha" type="matrix" values="0 0 0 0 0 0 0 0 0 0 0 0 0 0 0 0 0 0 127 0" result="hardAlpha"/>
<feOffset dy="4.5704"/>
<feGaussianBlur stdDeviation="3.80866"/>
<feColorMatrix type="matrix" values="0 0 0 0 0 0 0 0 0 0 0 0 0 0 0 0 0 0 0.06 0"/>
<feBlend mode="normal" in2="BackgroundImageFix" result="effect1_dropShadow_1_1901"/>
<feBlend mode="normal" in="SourceGraphic" in2="effect1_dropShadow_1_1901" result="shape"/>
</filter>
<linearGradient id="paint0_linear_1_1901" x1="185.96" y1="6.854" x2="185.96" y2="267.613" gradientUnits="userSpaceOnUse">
<stop stop-color="#FE5B3E"/>
<stop offset="1" stop-color="#FE7B49"/>
</linearGradient>
<linearGradient id="paint1_linear_1_1901" x1="185.96" y1="6.854" x2="185.96" y2="267.613" gradientUnits="userSpaceOnUse">
<stop stop-color="#FE5B3E"/>
<stop offset="1" stop-color="#FE7B49"/>
</linearGradient>
</defs>
</svg>
